<svg xmlns="http://www.w3.org/2000/svg" xmlns:xlink="http://www.w3.org/1999/xlink" width="238.802" height="56" viewBox="0 0 238.802 56">
  <defs>
    <style>
      .cls-1 {
        fill: none;
      }

      .cls-2 {
        fill: #fff;
      }

      .cls-3 {
        clip-path: url(#clip-path);
      }

      .cls-4 {
        fill: url(#radial-gradient);
      }

      .cls-5 {
        clip-path: url(#clip-path-2);
      }

      .cls-6 {
        fill: url(#radial-gradient-2);
      }

      .cls-7 {
        clip-path: url(#clip-path-3);
      }

      .cls-8 {
        fill: url(#radial-gradient-3);
      }

      .cls-9 {
        clip-path: url(#clip-path-4);
      }

      .cls-10 {
        fill: url(#radial-gradient-4);
      }

      .cls-11 {
        clip-path: url(#clip-path-5);
      }

      .cls-12 {
        fill: url(#radial-gradient-5);
      }

      .cls-13 {
        clip-path: url(#clip-path-6);
      }

      .cls-14 {
        fill: url(#radial-gradient-6);
      }

      .cls-15 {
        clip-path: url(#clip-path-7);
      }

      .cls-16 {
        fill: url(#radial-gradient-7);
      }

      .cls-17 {
        clip-path: url(#clip-path-8);
      }

      .cls-18 {
        fill: url(#radial-gradient-8);
      }

      .cls-19 {
        fill: url(#linear-gradient);
      }

      .cls-20 {
        fill: #fffffe;
      }

      .cls-21 {
        fill: url(#linear-gradient-2);
      }
    </style>
    <clipPath id="clip-path">
      <path id="Path_184" data-name="Path 184" class="cls-1" d="M-762.63,371.35a8,8,0,0,0,2.771,5.455c4.171,4.047,14.268,9.158,16.614,10.318a.2.2,0,0,0,.225-.038.174.174,0,0,0,.047-.2h0a124.434,124.434,0,0,0-15.216-24.58s-4.782,4.52-4.442,9.049" transform="translate(762.648 -362.301)"/>
    </clipPath>
    <radialGradient id="radial-gradient" cx="1.54" cy="-0.088" r="1.612" gradientTransform="matrix(1.22, 0, 0, -0.996, -3.324, -12.077)" gradientUnits="objectBoundingBox">
      <stop offset="0" stop-color="#fab8a0"/>
      <stop offset="0.427" stop-color="#ed1c24"/>
      <stop offset="0.677" stop-color="#eb1b23"/>
      <stop offset="0.777" stop-color="#e31921"/>
      <stop offset="0.85" stop-color="#d7171e"/>
      <stop offset="0.91" stop-color="#c61319"/>
      <stop offset="0.962" stop-color="#b00e13"/>
      <stop offset="1" stop-color="#9a090d"/>
    </radialGradient>
    <clipPath id="clip-path-2">
      <path id="Path_185" data-name="Path 185" class="cls-1" d="M-760.51,431.826c1.823,3.238,4.893,5.752,8.092,4.98,2.208-.549,7.206-4.022,8.856-5.2l0,0c.127-.115.082-.208.082-.208a.227.227,0,0,0-.216-.15v-.005Z" transform="translate(760.51 -431.242)"/>
    </clipPath>
    <radialGradient id="radial-gradient-2" cx="1.729" cy="-4.781" r="6.204" gradientTransform="matrix(0.381, 0, 0, -0.996, 11.075, -54.649)" xlink:href="#radial-gradient"/>
    <clipPath id="clip-path-3">
      <path id="Path_186" data-name="Path 186" class="cls-1" d="M-771.381,403.48a9.976,9.976,0,0,0,5.3,5,10.3,10.3,0,0,0,3.216.7c.251.047,10,.006,12.607-.007a.226.226,0,0,0,.173-.113c.081-.132-.063-.249-.063-.249v0c-7.383-4.961-21.692-12.576-21.692-12.576a9.877,9.877,0,0,0,.453,7.242" transform="translate(772.314 -396.238)"/>
    </clipPath>
    <radialGradient id="radial-gradient-3" cx="1.525" cy="-1.24" r="3.036" gradientTransform="matrix(0.561, 0, 0, -0.996, 5.889, -25.143)" xlink:href="#radial-gradient"/>
    <clipPath id="clip-path-4">
      <path id="Path_187" data-name="Path 187" class="cls-1" d="M-729.944,344.534a7.771,7.771,0,0,0-5.5,5.167,10.168,10.168,0,0,0,.021,5.31c1.485,6.565,8.8,17.352,10.366,19.617.111.111.2.07.2.07a.2.2,0,0,0,.156-.209l0,0c2.42-24.086-2.538-30.47-2.538-30.47-.731.064-2.706.512-2.706.512" transform="translate(735.801 -344.022)"/>
    </clipPath>
    <radialGradient id="radial-gradient-4" cx="1.441" cy="0.164" r="1.293" gradientTransform="matrix(2.171, 0, 0, -0.996, -24.379, -9.221)" xlink:href="#radial-gradient"/>
    <clipPath id="clip-path-5">
      <path id="Path_188" data-name="Path 188" class="cls-1" d="M-702.114,374.2h-.092a.207.207,0,0,0,.128.184.2.2,0,0,0,.244-.093v0c1.612-2.324,8.88-13.051,10.358-19.591,0,0,.8-3.166.028-5.31A7.778,7.778,0,0,0-697,344.227s-1.284-.324-2.646-.516c0,0-4.981,6.388-2.56,30.487" transform="translate(702.872 -343.712)"/>
    </clipPath>
    <radialGradient id="radial-gradient-5" cx="0.581" cy="0.164" r="1.274" gradientTransform="matrix(2.235, 0, 0, -0.996, -25.374, -9.221)" xlink:href="#radial-gradient"/>
    <clipPath id="clip-path-6">
      <path id="Path_189" data-name="Path 189" class="cls-1" d="M-691.37,431.273a.248.248,0,0,0-.19.13.238.238,0,0,0,.065.226h0c1.609,1.149,6.487,4.546,8.839,5.206,0,0,4.345,1.475,8.119-4.984l-16.83-.584Z" transform="translate(691.565 -431.268)"/>
    </clipPath>
    <radialGradient id="radial-gradient-6" cx="0.106" cy="-4.301" r="5.63" gradientTransform="matrix(0.405, 0, 0, -0.996, 9.685, -51.438)" xlink:href="#radial-gradient"/>
    <clipPath id="clip-path-7">
      <path id="Path_190" data-name="Path 190" class="cls-1" d="M-692.356,408.752l0,0a.222.222,0,0,0-.087.244s.069.125.172.125v0c2.644,0,12.658.015,12.911-.031a10.075,10.075,0,0,0,2.894-.663,9.845,9.845,0,0,0,5.41-5.155,10.069,10.069,0,0,0,.372-7.123s-14.288,7.637-21.675,12.6" transform="translate(692.45 -396.153)"/>
    </clipPath>
    <radialGradient id="radial-gradient-7" cx="0.09" cy="-1.237" r="3.044" gradientTransform="matrix(0.561, 0, 0, -0.996, 5.259, -25.142)" xlink:href="#radial-gradient"/>
    <clipPath id="clip-path-8">
      <path id="Path_191" data-name="Path 191" class="cls-1" d="M-695.712,386.393h0a.235.235,0,0,0,.047.267.213.213,0,0,0,.227.016h0c2.408-1.191,12.429-6.268,16.579-10.3a8.06,8.06,0,0,0,2.767-5.478c.3-4.688-4.435-9.027-4.435-9.027a124.363,124.363,0,0,0-15.188,24.517" transform="translate(695.732 -361.876)"/>
    </clipPath>
    <radialGradient id="radial-gradient-8" cx="0.171" cy="-0.088" r="1.586" gradientTransform="matrix(1.245, 0, 0, -0.996, -3.431, -12.077)" xlink:href="#radial-gradient"/>
    <linearGradient id="linear-gradient" x1="12.677" y1="7.11" x2="13.384" y2="7.817" gradientUnits="objectBoundingBox">
      <stop offset="0" stop-color="#66b9e2"/>
      <stop offset="0.134" stop-color="#60b7e1"/>
      <stop offset="0.31" stop-color="#50b0de"/>
      <stop offset="0.509" stop-color="#35a4d9"/>
      <stop offset="0.723" stop-color="#0f95d2"/>
      <stop offset="0.8" stop-color="#008ecf"/>
    </linearGradient>
    <linearGradient id="linear-gradient-2" x1="12.246" y1="24.757" x2="12.246" y2="23.723" gradientUnits="objectBoundingBox">
      <stop offset="0" stop-color="#76bfe4"/>
      <stop offset="0.123" stop-color="#70bde3"/>
      <stop offset="0.283" stop-color="#60b6e0"/>
      <stop offset="0.464" stop-color="#45abdb"/>
      <stop offset="0.66" stop-color="#1f9bd5"/>
      <stop offset="0.8" stop-color="#008ecf"/>
    </linearGradient>
  </defs>
  <g id="Group_66" data-name="Group 66" transform="translate(772.314 -343.712)">
    <g id="Group_59" data-name="Group 59" transform="translate(-772.314 343.712)">
      <path id="Path_179" data-name="Path 179" class="cls-2" d="M-765.926,459v3.644h-4.049V459H-772v8.909h2.025v-3.644h4.049v3.644h2.025V459Z" transform="translate(772.127 -412.17)"/>
      <g id="Group_42" data-name="Group 42" transform="translate(10.655 46.426)">
        <path id="Path_180" data-name="Path 180" class="cls-2" d="M-739.927,463.506c-.06,1.495-.8,2.292-2.149,2.292s-2.1-.82-1.9-2.356V458H-746v5.506c-.041,2.586,1.4,4.068,3.9,4.068,2.529,0,3.979-1.51,4.2-4.144V458.4h-2.025Z" transform="translate(746.002 -458)"/>
        <path id="Path_181" data-name="Path 181" class="cls-2" d="M-692.332,464.566l-2.087-6.161h-1.522l-2.087,6.161-2.03-6.566h-2.079l3.247,9.314h1.566l2.119-6.118,2.118,6.118h1.579l3.239-9.314H-690.3Z" transform="translate(719.899 -458)"/>
        <path id="Path_182" data-name="Path 182" class="cls-2" d="M-662.38,463.264h3.24v-1.62h-3.24v-1.62h4.859V458H-664v9.314h6.884v-1.62h-5.264Z" transform="translate(697.206 -458)"/>
        <rect id="Rectangle_31" data-name="Rectangle 31" class="cls-2" width="2.025" height="9.314" transform="translate(42.115)"/>
        <path id="Path_183" data-name="Path 183" class="cls-2" d="M-717.238,465.289l.873,2.025h1.851l-4.067-9.259-.037-.054h-1.653l-4.106,9.314h1.8l.826-1.883.059-.142Zm-2.23-4.718,1.329,3.1h0l.089.4h-2.82l.09-.4h0Z" transform="translate(733.133 -458)"/>
      </g>
      <g id="Group_44" data-name="Group 44" transform="translate(3.914 7.527)">
        <g id="Group_43" data-name="Group 43" class="cls-3">
          <rect id="Rectangle_32" data-name="Rectangle 32" class="cls-4" width="20.247" height="24.701" transform="translate(-0.548 -0.122)"/>
        </g>
      </g>
      <g id="Group_46" data-name="Group 46" transform="translate(4.78 35.547)">
        <g id="Group_45" data-name="Group 45" class="cls-5">
          <rect id="Rectangle_33" data-name="Rectangle 33" class="cls-6" width="17.008" height="6.479" transform="translate(0.207 -0.098)"/>
        </g>
      </g>
      <g id="Group_48" data-name="Group 48" transform="translate(0 21.342)">
        <g id="Group_47" data-name="Group 47" class="cls-7">
          <rect id="Rectangle_34" data-name="Rectangle 34" class="cls-8" width="23.082" height="12.958" transform="translate(-0.683 -0.096)"/>
        </g>
      </g>
      <g id="Group_50" data-name="Group 50" transform="translate(14.786 0.126)">
        <g id="Group_49" data-name="Group 49" class="cls-9">
          <rect id="Rectangle_35" data-name="Rectangle 35" class="cls-10" width="14.173" height="30.776" transform="translate(-0.486 -0.009)"/>
        </g>
      </g>
      <g id="Group_52" data-name="Group 52" transform="translate(28.12)">
        <g id="Group_51" data-name="Group 51" class="cls-11">
          <rect id="Rectangle_36" data-name="Rectangle 36" class="cls-12" width="13.768" height="30.776" transform="translate(-1.672 0.117)"/>
        </g>
      </g>
      <g id="Group_54" data-name="Group 54" transform="translate(32.699 35.558)">
        <g id="Group_53" data-name="Group 53" class="cls-13">
          <rect id="Rectangle_37" data-name="Rectangle 37" class="cls-14" width="17.008" height="6.884" transform="translate(-0.176 -0.109)"/>
        </g>
      </g>
      <g id="Group_56" data-name="Group 56" transform="translate(32.34 21.308)">
        <g id="Group_55" data-name="Group 55" class="cls-15">
          <rect id="Rectangle_38" data-name="Rectangle 38" class="cls-16" width="23.082" height="12.958" transform="translate(0.182 -0.062)"/>
        </g>
      </g>
      <g id="Group_58" data-name="Group 58" transform="translate(31.011 7.355)">
        <g id="Group_57" data-name="Group 57" class="cls-17">
          <rect id="Rectangle_39" data-name="Rectangle 39" class="cls-18" width="19.842" height="24.701" transform="translate(0.296 0.05)"/>
        </g>
      </g>
    </g>
    <g id="Group_64" data-name="Group 64" transform="translate(-692.448 343.829)">
      <g id="Group_60" data-name="Group 60" transform="translate(61.335 18.028)">
        <path id="Path_192" data-name="Path 192" class="cls-2" d="M-423.227,394.563l-.6,1.987h-1.321l2.247-7.011h1.633l2.279,7.011h-1.373l-.634-1.987Zm2.008-.968-.551-1.727c-.136-.426-.249-.9-.354-1.31h-.021c-.1.405-.209.895-.333,1.31l-.541,1.727Z" transform="translate(425.151 -389.05)"/>
        <path id="Path_193" data-name="Path 193" class="cls-2" d="M-408.658,398.052a2.774,2.774,0,0,0,1.29.375c.562,0,.811-.24.811-.572s-.208-.51-.832-.739c-.988-.333-1.395-.873-1.395-1.477,0-.895.739-1.581,1.914-1.581a2.914,2.914,0,0,1,1.351.3l-.26.895a2.234,2.234,0,0,0-1.07-.291c-.458,0-.707.229-.707.541s.239.469.884.707c.925.323,1.342.79,1.353,1.539,0,.926-.718,1.591-2.06,1.591a3.265,3.265,0,0,1-1.54-.354Z" transform="translate(415.492 -391.739)"/>
        <path id="Path_194" data-name="Path 194" class="cls-2" d="M-398.332,398.052a2.778,2.778,0,0,0,1.29.375c.563,0,.813-.24.813-.572s-.209-.51-.832-.739c-.989-.333-1.4-.873-1.4-1.477,0-.895.739-1.581,1.914-1.581a2.931,2.931,0,0,1,1.353.3l-.261.895a2.241,2.241,0,0,0-1.071-.291c-.458,0-.707.229-.707.541s.24.469.884.707c.926.323,1.341.79,1.351,1.539,0,.926-.718,1.591-2.058,1.591a3.261,3.261,0,0,1-1.54-.354Z" transform="translate(409.347 -391.739)"/>
        <path id="Path_195" data-name="Path 195" class="cls-2" d="M-385.752,399.353a2.45,2.45,0,0,1-2.539-2.611,2.5,2.5,0,0,1,2.622-2.684,2.431,2.431,0,0,1,2.518,2.6,2.507,2.507,0,0,1-2.589,2.694Zm.04-.925c.728,0,1.238-.707,1.238-1.738,0-.79-.354-1.706-1.229-1.706-.9,0-1.268.884-1.268,1.727,0,.978.489,1.717,1.247,1.717Z" transform="translate(403.217 -391.739)"/>
        <path id="Path_196" data-name="Path 196" class="cls-2" d="M-370.142,399.082a3.688,3.688,0,0,1-1.434.261,2.44,2.44,0,0,1-2.611-2.59,2.612,2.612,0,0,1,2.818-2.694,3.4,3.4,0,0,1,1.237.229l-.229.967a2.113,2.113,0,0,0-.968-.2,1.51,1.51,0,0,0-1.549,1.644,1.5,1.5,0,0,0,1.549,1.634,2.539,2.539,0,0,0,1.01-.2Z" transform="translate(394.824 -391.739)"/>
        <path id="Path_197" data-name="Path 197" class="cls-2" d="M-361.715,390.511a.677.677,0,0,1-.707-.687.682.682,0,0,1,.716-.7.684.684,0,0,1,.718.7.681.681,0,0,1-.718.687Zm-.635,5.794v-5.066h1.279V396.3Z" transform="translate(387.824 -388.805)"/>
        <path id="Path_198" data-name="Path 198" class="cls-2" d="M-352.639,398.021a6.918,6.918,0,0,0,.083,1.218h-1.155l-.093-.562h-.032a1.85,1.85,0,0,1-1.5.675,1.5,1.5,0,0,1-1.59-1.508c0-1.269,1.136-1.925,3-1.914v-.083c0-.333-.136-.884-1.029-.884a2.692,2.692,0,0,0-1.364.375l-.25-.832a3.651,3.651,0,0,1,1.831-.448,1.9,1.9,0,0,1,2.09,2.143v1.82Zm-1.248-1.258c-.906-.011-1.768.177-1.768.947a.671.671,0,0,0,.726.728,1.056,1.056,0,0,0,1.011-.7.861.861,0,0,0,.032-.281v-.7Z" transform="translate(384.551 -391.739)"/>
        <path id="Path_199" data-name="Path 199" class="cls-2" d="M-342.83,391.13v1.3h1.216v.957h-1.216v2.226c0,.625.166.936.655.936a1.705,1.705,0,0,0,.5-.051l.019.967a2.788,2.788,0,0,1-.927.135,1.472,1.472,0,0,1-1.1-.415,2,2,0,0,1-.406-1.425v-2.372h-.718v-.957h.718v-.947Z" transform="translate(377.343 -389.997)"/>
        <path id="Path_200" data-name="Path 200" class="cls-2" d="M-334.384,390.511a.678.678,0,0,1-.707-.687.682.682,0,0,1,.717-.7.685.685,0,0,1,.72.7.68.68,0,0,1-.72.687Zm-.636,5.794v-5.066h1.279V396.3Z" transform="translate(371.56 -388.805)"/>
        <path id="Path_201" data-name="Path 201" class="cls-2" d="M-326.981,399.353a2.449,2.449,0,0,1-2.537-2.611,2.5,2.5,0,0,1,2.62-2.684,2.43,2.43,0,0,1,2.518,2.6,2.507,2.507,0,0,1-2.59,2.694Zm.043-.925c.728,0,1.237-.707,1.237-1.738,0-.79-.354-1.706-1.227-1.706-.909,0-1.27.884-1.27,1.727,0,.978.489,1.717,1.249,1.717Z" transform="translate(368.244 -391.739)"/>
        <path id="Path_202" data-name="Path 202" class="cls-2" d="M-314.682,395.681c0-.583-.019-1.071-.041-1.509h1.11l.063.76h.032a1.858,1.858,0,0,1,1.621-.874c.883,0,1.8.573,1.8,2.175v3.006h-1.281v-2.86c0-.729-.27-1.28-.966-1.28a1.075,1.075,0,0,0-1,.749,1.143,1.143,0,0,0-.062.4v2.986h-1.28v-3.557Z" transform="translate(359.44 -391.739)"/>
        <path id="Path_203" data-name="Path 203" class="cls-2" d="M-296.031,395.831v-4.109h-.686v-.957h.686v-.218a2.368,2.368,0,0,1,.614-1.727,1.938,1.938,0,0,1,1.322-.488,2.657,2.657,0,0,1,.811.125l-.08.988a1.556,1.556,0,0,0-.555-.094c-.631,0-.843.53-.843,1.155v.26h1.113v.957h-1.1v4.109Z" transform="translate(348.725 -388.331)"/>
        <path id="Path_204" data-name="Path 204" class="cls-2" d="M-286.111,399.353a2.449,2.449,0,0,1-2.537-2.611,2.5,2.5,0,0,1,2.62-2.684,2.43,2.43,0,0,1,2.518,2.6,2.507,2.507,0,0,1-2.59,2.694Zm.042-.925c.726,0,1.236-.707,1.236-1.738,0-.79-.354-1.706-1.227-1.706-.908,0-1.268.884-1.268,1.727,0,.978.489,1.717,1.247,1.717Z" transform="translate(343.924 -391.739)"/>
        <path id="Path_205" data-name="Path 205" class="cls-2" d="M-273.813,395.8c0-.687-.009-1.186-.041-1.634h1.1l.053.957h.032a1.516,1.516,0,0,1,1.394-1.072,1.349,1.349,0,0,1,.3.032v1.2a2.048,2.048,0,0,0-.384-.032,1.126,1.126,0,0,0-1.143.967,2.731,2.731,0,0,0-.03.386v2.632h-1.28l0-3.433Z" transform="translate(335.121 -391.738)"/>
        <path id="Path_206" data-name="Path 206" class="cls-2" d="M-419.394,424.729a4.657,4.657,0,0,1-1.82.311,3.308,3.308,0,0,1-3.578-3.526,3.526,3.526,0,0,1,3.755-3.693,4,4,0,0,1,1.7.3l-.271,1.018a3.469,3.469,0,0,0-1.373-.271,2.334,2.334,0,0,0-2.455,2.58A2.288,2.288,0,0,0-421,423.97a3.96,3.96,0,0,0,1.394-.247Z" transform="translate(424.937 -405.88)"/>
        <path id="Path_207" data-name="Path 207" class="cls-2" d="M-407.945,427.9a2.449,2.449,0,0,1-2.538-2.611,2.5,2.5,0,0,1,2.621-2.683,2.43,2.43,0,0,1,2.517,2.6,2.507,2.507,0,0,1-2.59,2.694Zm.042-.925c.729,0,1.238-.707,1.238-1.737,0-.789-.354-1.707-1.227-1.707-.905,0-1.269.884-1.269,1.727,0,.978.489,1.717,1.248,1.717Z" transform="translate(416.423 -408.724)"/>
        <path id="Path_208" data-name="Path 208" class="cls-2" d="M-395.646,424.224c0-.582-.019-1.072-.041-1.508h1.093l.062.75h.032a1.724,1.724,0,0,1,1.56-.864,1.46,1.46,0,0,1,1.4.936h.018a1.982,1.982,0,0,1,.614-.632,1.745,1.745,0,0,1,1.041-.3c.832,0,1.686.572,1.686,2.2v2.985h-1.248v-2.8c0-.843-.292-1.341-.906-1.341a.976.976,0,0,0-.894.676,1.341,1.341,0,0,0-.062.426v3.037h-1.249v-2.934c0-.707-.281-1.206-.873-1.206a1.027,1.027,0,0,0-.927.718,1.488,1.488,0,0,0-.062.427v3h-1.249v-3.562Z" transform="translate(407.618 -408.724)"/>
        <path id="Path_209" data-name="Path 209" class="cls-2" d="M-374.249,424.4c0-.667-.021-1.2-.043-1.686h1.124l.062.782h.021a1.97,1.97,0,0,1,1.737-.9,2.3,2.3,0,0,1,2.133,2.582,2.41,2.41,0,0,1-2.309,2.713,1.665,1.665,0,0,1-1.425-.676h-.021v2.62h-1.279Zm1.279,1.257a1.95,1.95,0,0,0,.032.354,1.168,1.168,0,0,0,1.133.894c.812,0,1.29-.676,1.29-1.675,0-.894-.435-1.621-1.259-1.621a1.212,1.212,0,0,0-1.154.947,1.764,1.764,0,0,0-.043.322Z" transform="translate(394.887 -408.724)"/>
        <path id="Path_210" data-name="Path 210" class="cls-2" d="M-355.035,426.435c0,.6.019,1.1.041,1.521h-1.11l-.063-.759h-.032a1.857,1.857,0,0,1-1.633.876c-.915,0-1.757-.554-1.757-2.206v-2.974h1.279v2.756c0,.843.273,1.384.947,1.384a1.042,1.042,0,0,0,.979-.688.913.913,0,0,0,.073-.4v-3.059h1.281v3.547h0v0Z" transform="translate(386.138 -408.896)"/>
        <path id="Path_211" data-name="Path 211" class="cls-2" d="M-344.6,419.673v1.3h1.216v.957H-344.6v2.226c0,.624.166.937.655.937a1.689,1.689,0,0,0,.5-.053l.021.97a2.825,2.825,0,0,1-.927.135,1.463,1.463,0,0,1-1.1-.416,2,2,0,0,1-.406-1.428v-2.368h-.718v-.958h.718v-.948Z" transform="translate(378.394 -406.981)"/>
        <path id="Path_212" data-name="Path 212" class="cls-2" d="M-336.157,419.052a.678.678,0,0,1-.707-.686.684.684,0,0,1,.718-.7.688.688,0,0,1,.72.7.682.682,0,0,1-.72.686Zm-.635,5.793V419.78h1.28v5.065Z" transform="translate(372.615 -405.788)"/>
        <path id="Path_213" data-name="Path 213" class="cls-2" d="M-330.556,424.223c0-.582-.018-1.072-.042-1.508h1.113l.062.758h.032a1.861,1.861,0,0,1,1.621-.873c.884,0,1.8.569,1.8,2.171v3h-1.279v-2.861c0-.725-.273-1.278-.968-1.278a1.076,1.076,0,0,0-1,.75,1.186,1.186,0,0,0-.063.4v2.984h-1.278v-3.552Z" transform="translate(368.887 -408.723)"/>
        <path id="Path_214" data-name="Path 214" class="cls-2" d="M-312.073,427.043a2.93,2.93,0,0,1-.75,2.3,2.913,2.913,0,0,1-1.955.613,3.7,3.7,0,0,1-1.768-.4l.279-.968a3.058,3.058,0,0,0,1.476.385,1.348,1.348,0,0,0,1.459-1.529V427h-.021a1.7,1.7,0,0,1-1.478.751,2.249,2.249,0,0,1-2.152-2.479,2.427,2.427,0,0,1,2.3-2.673,1.575,1.575,0,0,1,1.465.79h.02l.049-.676h1.114c-.021.343-.043.758-.043,1.457v2.871l.006,0Zm-1.279-2.3a1.165,1.165,0,0,0-.043-.342,1.063,1.063,0,0,0-1.042-.82c-.718,0-1.245.626-1.245,1.654,0,.864.434,1.559,1.236,1.559a1.09,1.09,0,0,0,1.04-.782,1.487,1.487,0,0,0,.052-.448l0-.82Z" transform="translate(360.784 -408.724)"/>
        <path id="Path_215" data-name="Path 215" class="cls-2" d="M-291.134,422.217c-.041-.9-.094-1.986-.083-2.943h-.032c-.229.853-.519,1.8-.832,2.683l-1.029,3.035h-.979l-.936-3c-.272-.894-.52-1.851-.707-2.725h-.021c-.03.916-.072,2.029-.123,2.986l-.156,2.816h-1.2l.468-7.01h1.686l.915,2.818c.25.82.468,1.653.646,2.434h.03c.188-.758.43-1.622.7-2.446l.968-2.809h1.664l.406,7.012H-291Z" transform="translate(349.03 -406.021)"/>
        <path id="Path_216" data-name="Path 216" class="cls-2" d="M-272.547,426.565a6.763,6.763,0,0,0,.082,1.216h-1.154l-.093-.562h-.032a1.858,1.858,0,0,1-1.5.677,1.5,1.5,0,0,1-1.59-1.508c0-1.268,1.133-1.925,3-1.914v-.084c0-.333-.134-.884-1.029-.884a2.688,2.688,0,0,0-1.362.374l-.249-.832a3.639,3.639,0,0,1,1.83-.447,1.9,1.9,0,0,1,2.092,2.142v1.821Zm-1.249-1.259c-.9-.011-1.768.176-1.768.947a.672.672,0,0,0,.728.728,1.051,1.051,0,0,0,1.008-.7.846.846,0,0,0,.032-.28v-.7Z" transform="translate(336.893 -408.724)"/>
        <path id="Path_217" data-name="Path 217" class="cls-2" d="M-260.047,427.626a3.708,3.708,0,0,1-1.435.26,2.44,2.44,0,0,1-2.611-2.59,2.611,2.611,0,0,1,2.818-2.694,3.419,3.419,0,0,1,1.238.229l-.231.968a2.113,2.113,0,0,0-.968-.2,1.516,1.516,0,0,0-1.553,1.645,1.5,1.5,0,0,0,1.553,1.631,2.579,2.579,0,0,0,1.011-.2Z" transform="translate(329.313 -408.724)"/>
        <path id="Path_218" data-name="Path 218" class="cls-2" d="M-252.158,417.131h1.281v3.016h.017a1.678,1.678,0,0,1,.635-.572,1.811,1.811,0,0,1,.883-.229c.862,0,1.768.572,1.768,2.2v2.985h-1.28v-2.85c0-.726-.27-1.29-.977-1.29a1.069,1.069,0,0,0-1,.718,1.157,1.157,0,0,0-.051.384v3.037h-1.28v-7.4Z" transform="translate(322.213 -405.469)"/>
        <path id="Path_219" data-name="Path 219" class="cls-2" d="M-237.314,419.052a.678.678,0,0,1-.707-.686.684.684,0,0,1,.718-.7.684.684,0,0,1,.718.7.681.681,0,0,1-.718.686Zm-.635,5.793V419.78h1.281v5.065Z" transform="translate(313.798 -405.788)"/>
        <path id="Path_220" data-name="Path 220" class="cls-2" d="M-231.712,424.223c0-.582-.021-1.072-.043-1.508h1.114l.062.758h.032a1.86,1.86,0,0,1,1.621-.873c.883,0,1.8.569,1.8,2.171v3h-1.279v-2.861c0-.725-.273-1.278-.968-1.278a1.072,1.072,0,0,0-1,.75,1.138,1.138,0,0,0-.063.4v2.984h-1.279l0-3.552Z" transform="translate(310.069 -408.723)"/>
        <path id="Path_221" data-name="Path 221" class="cls-2" d="M-216.92,425.608a1.377,1.377,0,0,0,1.56,1.31,4.034,4.034,0,0,0,1.4-.23l.188.875a4.559,4.559,0,0,1-1.768.322,2.4,2.4,0,0,1-2.613-2.558,2.508,2.508,0,0,1,2.476-2.725,2.2,2.2,0,0,1,2.183,2.465,2.967,2.967,0,0,1-.041.541Zm2.226-.895a1.087,1.087,0,0,0-1.05-1.236,1.251,1.251,0,0,0-1.173,1.236Z" transform="translate(301.975 -408.724)"/>
        <path id="Path_222" data-name="Path 222" class="cls-2" d="M-204.535,424.347c0-.686-.011-1.186-.042-1.633h1.1l.053.957h.03A1.514,1.514,0,0,1-202,422.6a1.368,1.368,0,0,1,.3.03v1.2a2.119,2.119,0,0,0-.385-.032,1.122,1.122,0,0,0-1.141.969,2.18,2.18,0,0,0-.032.385v2.631h-1.279l0-3.433Z" transform="translate(293.897 -408.723)"/>
        <path id="Path_223" data-name="Path 223" class="cls-2" d="M-195.218,422.883l.9,2.715c.106.309.22.694.292.978h.032c.072-.281.166-.666.27-.988l.791-2.7h1.362l-1.268,3.452a7.731,7.731,0,0,1-1.757,3.257,2.709,2.709,0,0,1-1.342.645l-.291-1.073a2.115,2.115,0,0,0,.737-.353,2.237,2.237,0,0,0,.707-.8.591.591,0,0,0,.076-.229.672.672,0,0,0-.063-.249l-1.862-4.65Z" transform="translate(289.167 -408.891)"/>
      </g>
      <g id="Group_63" data-name="Group 63" transform="translate(0 0)">
        <path id="Path_224" data-name="Path 224" class="cls-19" d="M-548.879,399.623l-27.739-27.811L-548.879,344l27.739,27.811Z" transform="translate(576.618 -344)"/>
        <ellipse id="Ellipse_43" data-name="Ellipse 43" class="cls-20" cx="17.007" cy="17.08" rx="17.007" ry="17.08" transform="translate(10.732 10.732)"/>
        <ellipse id="Ellipse_44" data-name="Ellipse 44" class="cls-21" cx="15.306" cy="15.379" rx="15.306" ry="15.379" transform="translate(12.432 12.432)"/>
        <g id="Group_62" data-name="Group 62" transform="translate(14.228 23.983)">
          <g id="Group_61" data-name="Group 61">
            <path id="Path_225" data-name="Path 225" class="cls-20" d="M-536.884,409.853c-.156.131-.3.248-.421.352a2.484,2.484,0,0,1-.5.316,3.185,3.185,0,0,1-.6.226,3.528,3.528,0,0,1-.814.077,2.17,2.17,0,0,1-1.619-.657,2.253,2.253,0,0,1-.644-1.653,2.4,2.4,0,0,1,.327-1.326,2.244,2.244,0,0,1,.942-.8,5,5,0,0,1,1.485-.42c.577-.079,1.2-.14,1.859-.183v-.039a.863.863,0,0,0-.449-.841,3,3,0,0,0-1.345-.234,3.654,3.654,0,0,0-.948.149,7.55,7.55,0,0,0-1.06.379h-.2v-1.783c.227-.066.594-.143,1.1-.234a8.737,8.737,0,0,1,1.535-.136,4.77,4.77,0,0,1,2.775.635,2.234,2.234,0,0,1,.87,1.934v5.019h-2.3v-.78Zm0-1.148v-1.527c-.387.039-.7.074-.936.1a3.007,3.007,0,0,0-.7.168.986.986,0,0,0-.466.317.892.892,0,0,0-.166.562.815.815,0,0,0,.277.71,1.433,1.433,0,0,0,.818.19,1.536,1.536,0,0,0,.611-.136A1.876,1.876,0,0,0-536.884,408.705Z" transform="translate(541.483 -403.045)"/>
            <path id="Path_226" data-name="Path 226" class="cls-20" d="M-518.1,410.843a5.76,5.76,0,0,1-1.674-.23,3.529,3.529,0,0,1-1.317-.709,3.221,3.221,0,0,1-.862-1.2,4.341,4.341,0,0,1-.308-1.711,4.347,4.347,0,0,1,.336-1.8,3.382,3.382,0,0,1,.908-1.219,3.555,3.555,0,0,1,1.3-.677,5.5,5.5,0,0,1,1.555-.221,5.368,5.368,0,0,1,1.223.143,5.476,5.476,0,0,1,1.23.449v1.973h-.3q-.138-.131-.338-.289a3.219,3.219,0,0,0-.438-.29,2.812,2.812,0,0,0-.564-.234,2.445,2.445,0,0,0-.7-.095,1.634,1.634,0,0,0-1.365.613,2.584,2.584,0,0,0-.483,1.646,2.319,2.319,0,0,0,.516,1.651,1.8,1.8,0,0,0,1.371.545,2.7,2.7,0,0,0,.763-.1,2.568,2.568,0,0,0,.565-.235,2.368,2.368,0,0,0,.394-.283c.111-.1.205-.185.283-.264h.3v1.966c-.132.056-.284.12-.458.2a4.111,4.111,0,0,1-.528.181,6.044,6.044,0,0,1-.629.142A4.888,4.888,0,0,1-518.1,410.843Z" transform="translate(530.045 -403.063)"/>
            <path id="Path_227" data-name="Path 227" class="cls-20" d="M-494.29,410.657v-3.685c0-.363-.008-.669-.019-.919a1.871,1.871,0,0,0-.119-.611.666.666,0,0,0-.307-.345,1.289,1.289,0,0,0-.584-.109,1.308,1.308,0,0,0-.519.113,3.7,3.7,0,0,0-.562.328v5.228h-2.3v-3.685q0-.537-.022-.916a1.931,1.931,0,0,0-.122-.614.666.666,0,0,0-.307-.345,1.272,1.272,0,0,0-.577-.109,1.267,1.267,0,0,0-.554.131,4.034,4.034,0,0,0-.527.31v5.228h-2.3V403.29h2.3v.813a6.144,6.144,0,0,1,1.063-.748,2.315,2.315,0,0,1,1.121-.271,2.183,2.183,0,0,1,1.187.322,2.019,2.019,0,0,1,.782.958,6.784,6.784,0,0,1,1.25-.948,2.4,2.4,0,0,1,1.191-.333,2.415,2.415,0,0,1,.918.166,1.761,1.761,0,0,1,.69.492,2.312,2.312,0,0,1,.462.843,4.313,4.313,0,0,1,.155,1.276v4.8Z" transform="translate(518.646 -403.068)"/>
          </g>
        </g>
      </g>
    </g>
  </g>
</svg>
