<svg xmlns="http://www.w3.org/2000/svg" width="122.895" height="112.662" viewBox="0 0 122.895 112.662">
  <defs>
    <style>
      .cls-1, .cls-2, .cls-5 {
        fill: none;
      }

      .cls-2, .cls-5 {
        stroke: #dfe2ff;
        stroke-linecap: round;
      }

      .cls-2 {
        stroke-linejoin: round;
        stroke-width: 3px;
      }

      .cls-3 {
        fill: #ffd740;
      }

      .cls-4 {
        fill: #e6c23a;
        mix-blend-mode: multiply;
      }

      .cls-4, .cls-5 {
        isolation: isolate;
      }

      .cls-5 {
        stroke-miterlimit: 10;
        stroke-width: 2px;
        mix-blend-mode: screen;
      }
    </style>
  </defs>
  <g id="Group_28" data-name="Group 28" transform="translate(-346.23 421.668) rotate(-90)">
    <path id="Path_121" data-name="Path 121" class="cls-1" d="M356.961,443.5a11.61,11.61,0,0,0,18.987-12.2c4.621-.534,9.4-.4,11.91-4.321s1.065-12.158-3.511-13a15.03,15.03,0,0,0-8.843-26.377c4.294-3.818,3.883-10.737.54-15.411-4.726-6.608-15.22-5.031-19.135-.824Z"/>
    <path id="Path_122" data-name="Path 122" class="cls-2" d="M356.961,443.5a11.61,11.61,0,0,0,18.987-12.2c4.621-.534,9.4-.4,11.91-4.321s1.065-12.158-3.511-13a15.03,15.03,0,0,0-8.843-26.377c4.294-3.818,3.883-10.737.54-15.411-4.726-6.608-15.22-5.031-19.135-.824Z"/>
    <g id="Group_24" data-name="Group 24">
      <path id="Path_123" data-name="Path 123" class="cls-2" d="M349.443,419.387a12.725,12.725,0,1,1,0-25.45"/>
      <path id="Path_124" data-name="Path 124" class="cls-2" d="M349.443,367.725h-5.454v11.369a27.956,27.956,0,0,0-10.186,4.215l-8.036-8.036-7.713,7.712,8.037,8.037a27.94,27.94,0,0,0-4.216,10.186H310.506v10.907h11.369a27.938,27.938,0,0,0,4.216,10.187l-8.037,8.036,7.713,7.713,8.036-8.037a27.94,27.94,0,0,0,10.186,4.216V445.6h5.454"/>
    </g>
    <path id="Path_125" data-name="Path 125" class="cls-2" d="M367.291,393.937l22.222-17.125V360.791"/>
    <path id="Path_126" data-name="Path 126" class="cls-2" d="M371.018,410.458l25.146,6.654h13.33"/>
    <path id="Path_127" data-name="Path 127" class="cls-2" d="M367.291,421.212l21.233,24.744v10.168"/>
    <g id="Group_25" data-name="Group 25">
      <circle id="Ellipse_39" data-name="Ellipse 39" class="cls-3" cx="5.327" cy="5.327" r="5.327" transform="translate(382.285 357.668) rotate(-62.025)"/>
      <path id="Path_128" data-name="Path 128" class="cls-4" d="M388.948,353.536a3.514,3.514,0,0,0,4.4,2.318,3.466,3.466,0,0,0,1.494-.944,5.327,5.327,0,1,1-6.874-4.552,5.265,5.265,0,0,1,1.749-.214A3.5,3.5,0,0,0,388.948,353.536Z"/>
      <circle id="Ellipse_40" data-name="Ellipse 40" class="cls-2" cx="5.327" cy="5.327" r="5.327" transform="translate(382.285 357.668) rotate(-62.025)"/>
    </g>
    <g id="Group_26" data-name="Group 26">
      <path id="Path_129" data-name="Path 129" class="cls-3" d="M413.247,412.023a5.328,5.328,0,1,0,6.664,3.514A5.328,5.328,0,0,0,413.247,412.023Z"/>
      <path id="Path_130" data-name="Path 130" class="cls-4" d="M414.282,415.186a3.514,3.514,0,0,0,4.4,2.318,3.466,3.466,0,0,0,1.494-.944,5.327,5.327,0,1,1-6.874-4.552,5.265,5.265,0,0,1,1.749-.214A3.5,3.5,0,0,0,414.282,415.186Z"/>
      <path id="Path_131" data-name="Path 131" class="cls-2" d="M413.247,412.023a5.328,5.328,0,1,0,6.664,3.514A5.328,5.328,0,0,0,413.247,412.023Z"/>
    </g>
    <g id="Group_27" data-name="Group 27">
      <path id="Path_132" data-name="Path 132" class="cls-3" d="M386.925,457.19a5.327,5.327,0,1,0,6.664,3.514A5.328,5.328,0,0,0,386.925,457.19Z"/>
      <path id="Path_133" data-name="Path 133" class="cls-4" d="M387.959,460.353a3.49,3.49,0,0,0,5.891,1.374,5.393,5.393,0,1,1-5.126-4.766A3.5,3.5,0,0,0,387.959,460.353Z"/>
      <path id="Path_134" data-name="Path 134" class="cls-2" d="M386.925,457.19a5.327,5.327,0,1,0,6.664,3.514A5.328,5.328,0,0,0,386.925,457.19Z"/>
    </g>
    <path id="Path_135" data-name="Path 135" class="cls-5" d="M364.063,371.831a8.344,8.344,0,0,1,10.73,8.707"/>
    <path id="Path_136" data-name="Path 136" class="cls-5" d="M377.128,392.426a10.771,10.771,0,0,1,7.523,11.16"/>
  </g>
</svg>
