<svg xmlns="http://www.w3.org/2000/svg" width="133.52" height="136.73" viewBox="0 0 133.52 136.73">
  <defs>
    <style>
      .cls-1 {
        fill: none;
        stroke: #dfe2ff;
        stroke-linecap: round;
        stroke-linejoin: round;
        stroke-width: 3px;
      }

      .cls-2 {
        fill: #ffd740;
      }

      .cls-3 {
        fill: #e6c23a;
        mix-blend-mode: multiply;
        isolation: isolate;
      }
    </style>
  </defs>
  <g id="Group_10" data-name="Group 10" transform="translate(1.469 1.518)">
    <ellipse id="Ellipse_25" data-name="Ellipse 25" class="cls-1" cx="38.241" cy="38.241" rx="38.241" ry="38.241" transform="translate(102.513 133.272) rotate(-158.848)"/>
    <path id="Path_72" data-name="Path 72" class="cls-1" d="M733.94,400.345a44.88,44.88,0,0,0-44.879,44.88" transform="translate(-653.293 -361.416)"/>
    <ellipse id="Ellipse_26" data-name="Ellipse 26" class="cls-1" cx="19.404" cy="38.241" rx="19.404" ry="38.241" transform="translate(61.243 45.567)"/>
    <path id="Path_73" data-name="Path 73" class="cls-1" d="M689.06,426.98c-11.57,0-21.932-2.611-28.944-6.731a38.211,38.211,0,0,1,57.889,0C710.992,424.369,700.63,426.98,689.06,426.98Z" transform="translate(-608.413 -361.416)"/>
    <path id="Path_74" data-name="Path 74" class="cls-1" d="M689.06,463.47c11.57,0,21.932,2.611,28.945,6.731a38.211,38.211,0,0,1-57.889,0C667.128,466.081,677.49,463.47,689.06,463.47Z" transform="translate(-608.413 -361.416)"/>
    <line id="Line_110" data-name="Line 110" class="cls-1" x1="76.482" transform="translate(42.407 83.808)"/>
    <line id="Line_111" data-name="Line 111" class="cls-1" y2="76.482" transform="translate(80.648 45.567)"/>
    <path id="Path_75" data-name="Path 75" class="cls-1" d="M717.78,404.158l-10.6-16.417V372.074" transform="translate(-655.248 -361.416)"/>
    <g id="Group_7" data-name="Group 7" transform="translate(46.576 0)">
      <path id="Path_76" data-name="Path 76" class="cls-2" d="M719.33,361.656a5.327,5.327,0,1,1-6.664,3.514A5.328,5.328,0,0,1,719.33,361.656Z" transform="translate(-712.378 -361.416)"/>
      <path id="Path_77" data-name="Path 77" class="cls-3" d="M718.395,364.819a3.514,3.514,0,0,1-4.4,2.318,3.474,3.474,0,0,1-1.494-.944,5.392,5.392,0,1,0,5.125-4.766A3.5,3.5,0,0,1,718.395,364.819Z" transform="translate(-712.477 -361.416)"/>
      <path id="Path_78" data-name="Path 78" class="cls-1" d="M719.33,361.656a5.327,5.327,0,1,1-6.664,3.514A5.328,5.328,0,0,1,719.33,361.656Z" transform="translate(-712.378 -361.416)"/>
    </g>
    <g id="Group_8" data-name="Group 8" transform="translate(0 50.237)">
      <path id="Path_79" data-name="Path 79" class="cls-2" d="M765.906,411.893a5.327,5.327,0,1,1-6.664,3.514A5.326,5.326,0,0,1,765.906,411.893Z" transform="translate(-758.953 -411.653)"/>
      <path id="Path_80" data-name="Path 80" class="cls-3" d="M764.971,415.055a3.514,3.514,0,0,1-4.4,2.318,3.475,3.475,0,0,1-1.5-.944,5.327,5.327,0,1,0,6.875-4.552,5.269,5.269,0,0,0-1.749-.214A3.5,3.5,0,0,1,764.971,415.055Z" transform="translate(-759.052 -411.653)"/>
      <path id="Path_81" data-name="Path 81" class="cls-1" d="M765.906,411.893a5.327,5.327,0,1,1-6.664,3.514A5.326,5.326,0,0,1,765.906,411.893Z" transform="translate(-758.953 -411.653)"/>
    </g>
    <g id="Group_9" data-name="Group 9" transform="translate(22.242 22.5)">
      <path id="Path_82" data-name="Path 82" class="cls-2" d="M743.664,384.156A5.327,5.327,0,1,1,737,387.67,5.327,5.327,0,0,1,743.664,384.156Z" transform="translate(-736.711 -383.916)"/>
      <path id="Path_83" data-name="Path 83" class="cls-3" d="M742.729,387.319a3.49,3.49,0,0,1-5.891,1.374,5.393,5.393,0,1,0,5.126-4.766A3.5,3.5,0,0,1,742.729,387.319Z" transform="translate(-736.81 -383.916)"/>
      <path id="Path_84" data-name="Path 84" class="cls-1" d="M743.664,384.156A5.327,5.327,0,1,1,737,387.67,5.327,5.327,0,0,1,743.664,384.156Z" transform="translate(-736.711 -383.916)"/>
    </g>
    <line id="Line_112" data-name="Line 112" class="cls-1" x1="17.577" y1="20.394" transform="translate(30.707 32.324)"/>
    <path id="Path_85" data-name="Path 85" class="cls-1" d="M759,425.277l-15.486-8.3h-14.25" transform="translate(-718.559 -361.416)"/>
  </g>
</svg>
