<svg xmlns="http://www.w3.org/2000/svg" width="113.38" height="113.956" viewBox="0 0 113.38 113.956">
  <defs>
    <style>
      .cls-1 {
        fill: none;
        stroke: #dfe2ff;
        stroke-linecap: round;
        stroke-linejoin: round;
        stroke-width: 3px;
      }

      .cls-2 {
        fill: #ffd740;
      }

      .cls-3 {
        fill: #e6c23a;
        mix-blend-mode: multiply;
        isolation: isolate;
      }

      .cls-4 {
        fill: #dfe2ff;
        font-size: 19.687px;
        font-family: HelveticaNeue-Bold, Helvetica Neue;
        font-weight: 700;
      }
    </style>
  </defs>
  <g id="Group_41" data-name="Group 41" transform="translate(-308.672 -84.994)">
    <path id="Path_137" data-name="Path 137" class="cls-1" d="M356.653,124.713V106.079L342.4,95.16"/>
    <rect id="Rectangle_30" data-name="Rectangle 30" class="cls-1" width="32.336" height="32.336" transform="translate(349.985 124.66)"/>
    <g id="Group_29" data-name="Group 29">
      <path id="Path_138" data-name="Path 138" class="cls-2" d="M343.59,93.335a5.328,5.328,0,1,1-3.674-6.577A5.328,5.328,0,0,1,343.59,93.335Z"/>
      <path id="Path_139" data-name="Path 139" class="cls-3" d="M340.4,92.377a3.489,3.489,0,0,1-1.516-5.856,5.327,5.327,0,1,0,4.717,6.763,5.265,5.265,0,0,0,.171-1.754A3.5,3.5,0,0,1,340.4,92.377Z"/>
      <path id="Path_140" data-name="Path 140" class="cls-1" d="M343.59,93.335a5.328,5.328,0,1,1-3.674-6.577A5.328,5.328,0,0,1,343.59,93.335Z"/>
    </g>
    <path id="Path_141" data-name="Path 141" class="cls-1" d="M375.653,124.713V106.079L389.9,95.16"/>
    <g id="Group_30" data-name="Group 30">
      <path id="Path_142" data-name="Path 142" class="cls-2" d="M392.495,86.729a5.327,5.327,0,1,0,6.5,3.808A5.328,5.328,0,0,0,392.495,86.729Z"/>
      <path id="Path_143" data-name="Path 143" class="cls-3" d="M393.388,89.935a3.488,3.488,0,0,0,5.823,1.635,5.327,5.327,0,1,1-6.665-4.854,5.258,5.258,0,0,1,1.757-.136A3.5,3.5,0,0,0,393.388,89.935Z"/>
      <path id="Path_144" data-name="Path 144" class="cls-1" d="M392.495,86.729a5.327,5.327,0,1,0,6.5,3.808A5.328,5.328,0,0,0,392.495,86.729Z"/>
    </g>
    <g id="Group_31" data-name="Group 31">
      <path id="Path_145" data-name="Path 145" class="cls-2" d="M371.417,92.648a5.327,5.327,0,1,1-4.446-6.082A5.327,5.327,0,0,1,371.417,92.648Z"/>
      <path id="Path_146" data-name="Path 146" class="cls-3" d="M368.137,92.085a3.514,3.514,0,0,1-2.933-4.012,3.473,3.473,0,0,1,.717-1.616,5.327,5.327,0,1,0,5.5,6.138,5.266,5.266,0,0,0-.043-1.761A3.5,3.5,0,0,1,368.137,92.085Z"/>
      <path id="Path_147" data-name="Path 147" class="cls-1" d="M371.417,92.648a5.327,5.327,0,1,1-4.446-6.082A5.327,5.327,0,0,1,371.417,92.648Z"/>
    </g>
    <line id="Line_115" data-name="Line 115" class="cls-1" y1="26.128" transform="translate(366.153 98.533)"/>
    <path id="Path_148" data-name="Path 148" class="cls-1" d="M348.383,150.328H329.749l-10.919,14.25"/>
    <g id="Group_32" data-name="Group 32">
      <path id="Path_149" data-name="Path 149" class="cls-2" d="M320.868,168.878a5.327,5.327,0,1,1-4.954-5.676A5.327,5.327,0,0,1,320.868,168.878Z"/>
      <path id="Path_150" data-name="Path 150" class="cls-3" d="M317.552,168.6a3.515,3.515,0,0,1-3.268-3.745,3.474,3.474,0,0,1,.575-1.671,5.391,5.391,0,1,0,5.818,3.89A3.5,3.5,0,0,1,317.552,168.6Z"/>
      <path id="Path_151" data-name="Path 151" class="cls-1" d="M320.868,168.878a5.327,5.327,0,1,1-4.954-5.676A5.327,5.327,0,0,1,320.868,168.878Z"/>
    </g>
    <path id="Path_152" data-name="Path 152" class="cls-1" d="M348.383,131.328H329.749l-10.919-14.25"/>
    <g id="Group_33" data-name="Group 33">
      <path id="Path_153" data-name="Path 153" class="cls-2" d="M313.594,108.186a5.327,5.327,0,1,0,6.913,2.994A5.327,5.327,0,0,0,313.594,108.186Z"/>
      <path id="Path_154" data-name="Path 154" class="cls-3" d="M314.867,111.26a3.514,3.514,0,0,0,4.56,1.975,3.468,3.468,0,0,0,1.418-1.055,5.39,5.39,0,1,1-5.474-4.361A3.5,3.5,0,0,0,314.867,111.26Z"/>
      <path id="Path_155" data-name="Path 155" class="cls-1" d="M313.594,108.186a5.327,5.327,0,1,0,6.913,2.994A5.327,5.327,0,0,0,313.594,108.186Z"/>
    </g>
    <g id="Group_34" data-name="Group 34">
      <path id="Path_156" data-name="Path 156" class="cls-2" d="M320.824,141a5.327,5.327,0,1,1-5.148-5.5A5.327,5.327,0,0,1,320.824,141Z"/>
      <path id="Path_157" data-name="Path 157" class="cls-3" d="M317.5,140.841a3.489,3.489,0,0,1-2.881-5.319,5.327,5.327,0,1,0,6.206,5.429,5.273,5.273,0,0,0-.256-1.743A3.5,3.5,0,0,1,317.5,140.841Z"/>
      <path id="Path_158" data-name="Path 158" class="cls-1" d="M320.824,141a5.327,5.327,0,1,1-5.148-5.5A5.327,5.327,0,0,1,320.824,141Z"/>
    </g>
    <line id="Line_116" data-name="Line 116" class="cls-1" x1="26.128" transform="translate(322.202 140.828)"/>
    <path id="Path_159" data-name="Path 159" class="cls-1" d="M382.321,131.328h18.634l10.919-14.25"/>
    <g id="Group_35" data-name="Group 35">
      <path id="Path_160" data-name="Path 160" class="cls-2" d="M420.132,115.028a5.327,5.327,0,1,1-3.092-6.87A5.328,5.328,0,0,1,420.132,115.028Z"/>
      <path id="Path_161" data-name="Path 161" class="cls-3" d="M417.04,113.8a3.489,3.489,0,0,1-1-5.965,5.392,5.392,0,1,0,4.437,5.413A3.5,3.5,0,0,1,417.04,113.8Z"/>
      <path id="Path_162" data-name="Path 162" class="cls-1" d="M420.132,115.028a5.327,5.327,0,1,1-3.092-6.87A5.328,5.328,0,0,1,420.132,115.028Z"/>
    </g>
    <path id="Path_163" data-name="Path 163" class="cls-1" d="M382.321,150.328h18.634l10.919,14.25"/>
    <g id="Group_36" data-name="Group 36">
      <path id="Path_164" data-name="Path 164" class="cls-2" d="M415.153,163.19a5.327,5.327,0,1,0,5.325,5.329A5.327,5.327,0,0,0,415.153,163.19Z"/>
      <path id="Path_165" data-name="Path 165" class="cls-3" d="M415.2,166.517a3.489,3.489,0,0,0,5.22,3.056,5.327,5.327,0,1,1-5.219-6.383,5.25,5.25,0,0,1,1.734.314A3.5,3.5,0,0,0,415.2,166.517Z"/>
      <path id="Path_166" data-name="Path 166" class="cls-1" d="M415.153,163.19a5.327,5.327,0,1,0,5.325,5.329A5.327,5.327,0,0,0,415.153,163.19Z"/>
    </g>
    <g id="Group_37" data-name="Group 37">
      <path id="Path_167" data-name="Path 167" class="cls-2" d="M420.126,142.866a5.327,5.327,0,1,1-2.884-6.96A5.326,5.326,0,0,1,420.126,142.866Z"/>
      <path id="Path_168" data-name="Path 168" class="cls-3" d="M417.072,141.544a3.513,3.513,0,0,1-1.9-4.591,3.468,3.468,0,0,1,1.078-1.4,5.327,5.327,0,1,0,3.9,7.265,5.252,5.252,0,0,0,.374-1.721A3.5,3.5,0,0,1,417.072,141.544Z"/>
      <path id="Path_169" data-name="Path 169" class="cls-1" d="M420.126,142.866a5.327,5.327,0,1,1-2.884-6.96A5.326,5.326,0,0,1,420.126,142.866Z"/>
    </g>
    <line id="Line_117" data-name="Line 117" class="cls-1" x2="26.128" transform="translate(382.374 140.828)"/>
    <path id="Path_170" data-name="Path 170" class="cls-1" d="M375.653,157V175.63l14.25,10.919"/>
    <g id="Group_38" data-name="Group 38">
      <path id="Path_171" data-name="Path 171" class="cls-2" d="M399.013,191.106a5.327,5.327,0,1,1-3.892-6.451A5.328,5.328,0,0,1,399.013,191.106Z"/>
      <path id="Path_172" data-name="Path 172" class="cls-3" d="M395.8,190.255A3.513,3.513,0,0,1,393.229,186a3.473,3.473,0,0,1,.856-1.547,5.327,5.327,0,1,0,4.941,6.6,5.271,5.271,0,0,0,.112-1.758A3.5,3.5,0,0,1,395.8,190.255Z"/>
      <path id="Path_173" data-name="Path 173" class="cls-1" d="M399.013,191.106a5.327,5.327,0,1,1-3.892-6.451A5.328,5.328,0,0,1,399.013,191.106Z"/>
    </g>
    <path id="Path_174" data-name="Path 174" class="cls-1" d="M356.653,157V175.63L342.4,186.549"/>
    <g id="Group_39" data-name="Group 39">
      <path id="Path_175" data-name="Path 175" class="cls-2" d="M336.889,184.737a5.328,5.328,0,1,0,6.664,3.514A5.327,5.327,0,0,0,336.889,184.737Z"/>
      <path id="Path_176" data-name="Path 176" class="cls-3" d="M337.923,187.9a3.489,3.489,0,0,0,5.891,1.374,5.392,5.392,0,1,1-5.125-4.766A3.5,3.5,0,0,0,337.923,187.9Z"/>
      <path id="Path_177" data-name="Path 177" class="cls-1" d="M336.889,184.737a5.328,5.328,0,1,0,6.664,3.514A5.327,5.327,0,0,0,336.889,184.737Z"/>
    </g>
    <g id="Group_40" data-name="Group 40">
      <circle id="Ellipse_41" data-name="Ellipse 41" class="cls-2" cx="5.327" cy="5.327" r="5.327" transform="translate(359.075 187.298) rotate(-24.965)"/>
      <path id="Path_178" data-name="Path 178" class="cls-3" d="M368.053,190.507a3.489,3.489,0,0,1-1.105-5.947,5.327,5.327,0,1,0,4.235,7.074,5.264,5.264,0,0,0,.293-1.737A3.5,3.5,0,0,1,368.053,190.507Z"/>
      <circle id="Ellipse_42" data-name="Ellipse 42" class="cls-1" cx="5.327" cy="5.327" r="5.327" transform="translate(359.075 187.298) rotate(-24.965)"/>
    </g>
    <line id="Line_118" data-name="Line 118" class="cls-1" y2="26.128" transform="translate(366.153 157.049)"/>
    <text id="AI" class="cls-4" transform="translate(355.32 149.832)"><tspan x="0" y="0">AI</tspan></text>
  </g>
</svg>
